<?xml version="1.0" encoding="UTF-8" standalone="no"?>
<!-- Created with Inkscape (http://www.inkscape.org/) -->

<svg
   xmlns:dc="http://purl.org/dc/elements/1.1/"
   xmlns:cc="http://creativecommons.org/ns#"
   xmlns:rdf="http://www.w3.org/1999/02/22-rdf-syntax-ns#"
   xmlns:svg="http://www.w3.org/2000/svg"
   xmlns="http://www.w3.org/2000/svg"
   xmlns:xlink="http://www.w3.org/1999/xlink"
   xmlns:sodipodi="http://sodipodi.sourceforge.net/DTD/sodipodi-0.dtd"
   xmlns:inkscape="http://www.inkscape.org/namespaces/inkscape"
   id="svg2527"
   height="48"
   width="48"
   version="1.0"
   inkscape:version="0.48.4 r9939"
   sodipodi:docname="plumetrack_process.svg">
  <metadata
     id="metadata47">
    <rdf:RDF>
      <cc:Work
         rdf:about="">
        <dc:format>image/svg+xml</dc:format>
        <dc:type
           rdf:resource="http://purl.org/dc/dcmitype/StillImage" />
        <dc:title />
      </cc:Work>
    </rdf:RDF>
  </metadata>
  <sodipodi:namedview
     pagecolor="#ffffff"
     bordercolor="#666666"
     borderopacity="1"
     objecttolerance="10"
     gridtolerance="10"
     guidetolerance="10"
     inkscape:pageopacity="0"
     inkscape:pageshadow="2"
     inkscape:window-width="1248"
     inkscape:window-height="894"
     id="namedview45"
     showgrid="false"
     inkscape:zoom="9.8333335"
     inkscape:cx="22.137219"
     inkscape:cy="14.180378"
     inkscape:window-x="177"
     inkscape:window-y="188"
     inkscape:window-maximized="0"
     inkscape:current-layer="svg2527" />
  <defs
     id="defs2529">
    <linearGradient
       id="linearGradient3326"
       y2="47.012"
       gradientUnits="userSpaceOnUse"
       x2="32.036"
       gradientTransform="matrix(.93928 .34315 -.34315 .93928 -1.7937 -25.634)"
       y1="19"
       x1="32.036">
      <stop
         id="stop3311-4"
         style="stop-color:#f6f6f6"
         offset="0" />
      <stop
         id="stop3313-8"
         style="stop-color:#d2d2d2"
         offset="1" />
    </linearGradient>
    <linearGradient
       id="linearGradient3328"
       y2="47.045"
       gradientUnits="userSpaceOnUse"
       x2="25.923"
       gradientTransform="matrix(.93928 .34315 -.34315 .93928 -1.7937 -25.634)"
       y1="19"
       x1="25.923">
      <stop
         id="stop3399-0"
         style="stop-color:#aaa"
         offset="0" />
      <stop
         id="stop3401-3"
         style="stop-color:#8c8c8c"
         offset="1" />
    </linearGradient>
    <linearGradient
       id="linearGradient2868"
       y2="20.895"
       gradientUnits="userSpaceOnUse"
       x2="84.639"
       gradientTransform="matrix(.20140 0 0 .20140 3.1103 3.3117)"
       y1="105.1"
       x1="86.133">
      <stop
         id="stop5130-4"
         style="stop-color:#fff"
         offset="0" />
      <stop
         id="stop5132-4"
         style="stop-color:#959595"
         offset="1" />
    </linearGradient>
    <linearGradient
       id="linearGradient3218"
       y2="23"
       gradientUnits="userSpaceOnUse"
       x2="34"
       gradientTransform="translate(-24.5)"
       y1="1"
       x1="34">
      <stop
         id="stop3311-8"
         style="stop-color:#f6f6f6"
         offset="0" />
      <stop
         id="stop3313-88"
         style="stop-color:#d2d2d2"
         offset="1" />
    </linearGradient>
    <linearGradient
       id="linearGradient3228"
       y2="23.02"
       gradientUnits="userSpaceOnUse"
       x2="40"
       gradientTransform="translate(-24.5)"
       y1="1"
       x1="40">
      <stop
         id="stop3399-7"
         style="stop-color:#aaa"
         offset="0" />
      <stop
         id="stop3401-7"
         style="stop-color:#8c8c8c"
         offset="1" />
    </linearGradient>
    <linearGradient
       id="linearGradient3241"
       y2="20.895"
       gradientUnits="userSpaceOnUse"
       x2="84.639"
       gradientTransform="matrix(.15623 0 0 .15623 2.0012 2.1574)"
       y1="105.1"
       x1="86.133">
      <stop
         id="stop5130-43"
         style="stop-color:#eee"
         offset="0" />
      <stop
         id="stop5132-0"
         style="stop-color:#a2a2a2"
         offset="1" />
    </linearGradient>
    <linearGradient
       id="linearGradient3262"
       y2="16"
       gradientUnits="userSpaceOnUse"
       x2="25"
       gradientTransform="translate(-17.058)"
       x1="25">
      <stop
         id="stop3311-2"
         style="stop-color:#f6f6f6"
         offset="0" />
      <stop
         id="stop3313-9"
         style="stop-color:#ccc"
         offset="1" />
    </linearGradient>
    <linearGradient
       id="linearGradient3264"
       y2="16.005"
       gradientUnits="userSpaceOnUse"
       x2="21"
       gradientTransform="translate(-17.058)"
       x1="21">
      <stop
         id="stop3399-8"
         style="stop-color:#aaa"
         offset="0" />
      <stop
         id="stop3401-1"
         style="stop-color:#8c8c8c"
         offset="1" />
    </linearGradient>
    <linearGradient
       id="linearGradient3260"
       y2="20.895"
       gradientUnits="userSpaceOnUse"
       x2="84.639"
       gradientTransform="matrix(.096142 0 0 .096142 1.8469 1.943)"
       y1="105.1"
       x1="86.133">
      <stop
         id="stop5130-1"
         style="stop-color:#e5e5e5"
         offset="0" />
      <stop
         id="stop5132-1"
         style="stop-color:#ababab"
         offset="1" />
    </linearGradient>
    <radialGradient
       inkscape:collect="always"
       xlink:href="#linearGradient8662"
       id="radialGradient8668"
       cx="24.837126"
       cy="36.421127"
       fx="24.837126"
       fy="36.421127"
       r="15.644737"
       gradientTransform="matrix(1,0,0,0.536723,0,16.87306)"
       gradientUnits="userSpaceOnUse" />
    <radialGradient
       inkscape:collect="always"
       xlink:href="#linearGradient8650"
       id="radialGradient8656"
       cx="18.968266"
       cy="3.0045178"
       fx="18.968266"
       fy="3.0045178"
       r="17.171415"
       gradientTransform="matrix(2.046729,0,0,1.55761,-19.66321,2.38997)"
       gradientUnits="userSpaceOnUse" />
    <linearGradient
       inkscape:collect="always"
       id="linearGradient8650">
      <stop
         style="stop-color:#ffffff;stop-opacity:1;"
         offset="0"
         id="stop8652" />
      <stop
         style="stop-color:#ffffff;stop-opacity:0;"
         offset="1"
         id="stop8654" />
    </linearGradient>
    <linearGradient
       inkscape:collect="always"
       id="linearGradient8662">
      <stop
         style="stop-color:#000000;stop-opacity:1;"
         offset="0"
         id="stop8664" />
      <stop
         style="stop-color:#000000;stop-opacity:0;"
         offset="1"
         id="stop8666" />
    </linearGradient>
    <radialGradient
       r="16.956199"
       fy="34.462799"
       fx="22.588188"
       cy="34.462799"
       cx="22.588188"
       gradientTransform="matrix(0.843022,0,0,1.020168,4.41386,0.60644)"
       gradientUnits="userSpaceOnUse"
       id="radialGradient1441"
       xlink:href="#linearGradient1428"
       inkscape:collect="always" />
    <linearGradient
       id="linearGradient1428">
      <stop
         style="stop-color:#73d216"
         offset="0"
         id="stop1430" />
      <stop
         style="stop-color:#4e9a06"
         offset="1.0000000"
         id="stop1432" />
    </linearGradient>
    <inkscape:perspective
       id="perspective24"
       inkscape:persp3d-origin="24 : 16 : 1"
       inkscape:vp_z="48 : 24 : 1"
       inkscape:vp_y="0 : 1000 : 0"
       inkscape:vp_x="0 : 24 : 1"
       sodipodi:type="inkscape:persp3d" />
    <radialGradient
       gradientUnits="userSpaceOnUse"
       gradientTransform="matrix(0.843022,0,0,1.020168,4.499298,1.381992)"
       r="16.9562"
       fy="32.797512"
       fx="22.291636"
       cy="32.797512"
       cx="22.291636"
       id="radialGradient2597"
       xlink:href="#linearGradient2591"
       inkscape:collect="always" />
    <radialGradient
       inkscape:collect="always"
       xlink:href="#linearGradient8662-4"
       id="radialGradient8668-1"
       cx="24.837126"
       cy="36.421127"
       fx="24.837126"
       fy="36.421127"
       r="15.644737"
       gradientTransform="matrix(1,0,0,0.536723,0,16.87306)"
       gradientUnits="userSpaceOnUse" />
    <radialGradient
       inkscape:collect="always"
       xlink:href="#linearGradient8650-3"
       id="radialGradient8656-3"
       cx="19.701141"
       cy="2.8969381"
       fx="19.701141"
       fy="2.8969381"
       r="17.171415"
       gradientTransform="matrix(2.046729,0,0,1.55761,-19.51799,3.452086)"
       gradientUnits="userSpaceOnUse" />
    <linearGradient
       inkscape:collect="always"
       id="linearGradient8650-3">
      <stop
         style="stop-color:#ffffff;stop-opacity:1;"
         offset="0"
         id="stop8652-0" />
      <stop
         style="stop-color:#ffffff;stop-opacity:0;"
         offset="1"
         id="stop8654-2" />
    </linearGradient>
    <linearGradient
       inkscape:collect="always"
       id="linearGradient8662-4">
      <stop
         style="stop-color:#000000;stop-opacity:1;"
         offset="0"
         id="stop8664-1" />
      <stop
         style="stop-color:#000000;stop-opacity:0;"
         offset="1"
         id="stop8666-7" />
    </linearGradient>
    <linearGradient
       id="linearGradient2591">
      <stop
         id="stop2593"
         offset="0"
         style="stop-color:#73d216" />
      <stop
         id="stop2595"
         offset="1.0000000"
         style="stop-color:#4e9a06" />
    </linearGradient>
    <inkscape:perspective
       id="perspective23"
       inkscape:persp3d-origin="24 : 16 : 1"
       inkscape:vp_z="48 : 24 : 1"
       inkscape:vp_y="0 : 1000 : 0"
       inkscape:vp_x="0 : 24 : 1"
       sodipodi:type="inkscape:persp3d" />
  </defs>
  <g
     id="layer1"
     transform="translate(16 12)"
     style="stroke:#000000;stroke-opacity:1;stroke-width:0.6;stroke-miterlimit:4;stroke-dasharray:none">
    <path
       id="rect2576"
       style="stroke-linejoin:round;stroke:#000000;display:block;fill:url(#linearGradient3326);stroke-opacity:1;stroke-width:0.6;stroke-miterlimit:4;stroke-dasharray:none"
       d="m18.637 2.5905c-0.70328-0.25693-1.4957 0.08705-1.7526 0.79032l-0.60052 1.6437c-0.49918-0.013219-0.99396 0.00248-1.4845 0.056512l-0.726-1.5629c-0.315-0.6789-1.111-0.9697-1.79-0.6541l-3.9169 1.7963c-0.6789 0.3156-0.9697 1.1115-0.6541 1.7905l0.72653 1.563c-0.3651 0.3456-0.6933 0.7303-1.0109 1.1278l-1.6143-0.5898c-0.7033-0.2569-1.4957 0.0871-1.7527 0.7903l-1.4798 4.0509c-0.25693 0.70328 0.12713 1.4771 0.8304 1.734l1.6144 0.58979c-0.013469 0.50858-0.010523 1.0143 0.045789 1.5139l-1.563 0.72653c-0.67897 0.31561-0.96975 1.1115-0.65413 1.7905l1.8364 3.8981c0.31561 0.67897 1.1115 0.96974 1.7905 0.65413l1.563-0.72653c0.34021 0.35755 0.70835 0.6885 1.0985 1.0002l-0.60051 1.6437c-0.25693 0.70328 0.12713 1.4771 0.8304 1.734l4.0213 1.4691c0.70328 0.25693 1.4663-0.09777 1.7233-0.80105l0.60052-1.6437c0.50858 0.01347 1.0143 0.01052 1.5139-0.04579l0.72653 1.563c0.31561 0.67897 1.1115 0.96974 1.7905 0.65413l3.9167-1.7963c0.67897-0.31561 0.96974-1.1115 0.65413-1.7905l-0.74516-1.603c0.35755-0.34021 0.6885-0.70835 1.0002-1.0985l1.6437 0.60052c0.70328 0.25693 1.4663-0.09778 1.7233-0.80105l1.4798-4.0506c0.25693-0.70328-0.09778-1.4663-0.80105-1.7233l-1.6437-0.60051c0.01322-0.49918-0.0025-0.99396-0.05651-1.4845l1.603-0.74516c0.679-0.315 0.97-1.111 0.654-1.79l-1.836-3.8979c-0.316-0.6789-1.112-0.9697-1.791-0.6541l-1.563 0.7265c-0.345-0.3651-0.73-0.6933-1.128-1.0109l0.601-1.6437c0.257-0.7033-0.098-1.4663-0.801-1.7233l-4.021-1.4691zm-1.436 10.122c1.8147 0.66297 2.7494 2.6738 2.0865 4.4885-0.66297 1.8147-2.6738 2.7494-4.4885 2.0865-1.8147-0.66297-2.7494-2.6738-2.0865-4.4885 0.66297-1.8147 2.6738-2.7494 4.4885-2.0865z" />
    <path
       id="path3315"
       style="opacity:0.05000000000000000;stroke:#000000;stroke-opacity:1;stroke-width:0.6;stroke-miterlimit:4;stroke-dasharray:none"
       d="m16 8c-4.4113 0-8 3.5887-8 8s3.5887 8 8 8c4.411 0 8-3.589 8-8s-3.589-8-8-8zm0 3.6923c2.3778 0 4.3077 1.9298 4.3077 4.3077 0 2.3778-1.9298 4.3077-4.3077 4.3077-2.3778 0-4.3077-1.9298-4.3077-4.3077 0-2.3778 1.9298-4.3077 4.3077-4.3077z" />
    <path
       id="path28"
       style="stroke:#000000;fill:none;stroke-opacity:1;stroke-width:0.6;stroke-miterlimit:4;stroke-dasharray:none"
       d="m16 7.6207c-4.6204 0-8.3793 3.759-8.3793 8.3793 0 4.6204 3.759 8.3793 8.3793 8.3793 4.6204 0 8.3793-3.759 8.3793-8.3793 0-4.6204-3.759-8.3793-8.3793-8.3793z" />
  </g>
  <g
     id="layer1-3"
     transform="translate(2,-1)"
     style="stroke:#000000;stroke-opacity:1;stroke-width:0.6;stroke-miterlimit:4;stroke-dasharray:none">
    <g
       id="g2486"
       style="stroke:#000000;stroke-opacity:1;stroke-width:0.6;stroke-miterlimit:4;stroke-dasharray:none">
      <path
         id="rect2426"
         style="stroke-linejoin:round;stroke:#000000;display:block;fill:url(#linearGradient3218);stroke-opacity:1;stroke-width:0.6;stroke-miterlimit:4;stroke-dasharray:none"
         d="m10.188 1.5c-0.3889 0-0.688 0.2991-0.688 0.6875v1.6875c-0.5117 0.1572-1.0032 0.3788-1.4688 0.625l-1.1874-1.1875c-0.27462-0.27462-0.72538-0.27462-1 0l-2.5313 2.5313c-0.27462 0.27462-0.27462 0.72538 0 1l1.1875 1.1874c-0.2462 0.4656-0.4678 0.9571-0.625 1.4688h-1.6875c-0.3884 0-0.6875 0.2991-0.6875 0.688v3.625c0 0.388 0.2991 0.687 0.6875 0.687h1.6875c0.15722 0.51167 0.37877 1.0032 0.625 1.4688l-1.1875 1.1875c-0.27462 0.27462-0.27462 0.72538 0 1l2.5312 2.5312c0.27462 0.27462 0.72538 0.27462 1 0l1.1875-1.187c0.4656 0.246 0.9571 0.468 1.4688 0.625v1.6875c0 0.38837 0.29914 0.6875 0.6875 0.6875h3.625c0.38837 0 0.6875-0.29913 0.6875-0.6875v-1.6875c0.51167-0.15722 1.0032-0.37877 1.4688-0.625l1.1875 1.1875c0.27462 0.27462 0.72538 0.27462 1 0l2.5312-2.5312c0.27462-0.27462 0.27462-0.72538 0-1l-1.187-1.186c0.246-0.466 0.468-0.957 0.625-1.469h1.6875c0.38837 0 0.6875-0.29913 0.6875-0.6875v-3.625c0-0.3879-0.299-0.687-0.688-0.687h-1.6875c-0.156-0.5117-0.378-1.0032-0.624-1.4688l1.1875-1.1875c0.27462-0.27462 0.27462-0.72538 0-1l-2.532-2.5312c-0.27462-0.27462-0.72538-0.27462-1 0l-1.187 1.1875c-0.466-0.2462-0.957-0.4678-1.469-0.625v-1.6875c0-0.3884-0.299-0.6875-0.688-0.6875h-3.625zm1.812 7.5c1.656 0 3 1.344 3 3s-1.344 3-3 3-3-1.344-3-3 1.344-3 3-3z" />
      <path
         id="path3315-9"
         style="opacity:0.05000000000000000;stroke:#000000;stroke-opacity:1;stroke-width:0.6;stroke-miterlimit:4;stroke-dasharray:none"
         d="m12 6c-3.3085-2e-7 -6 2.6915-6 6s2.6915 6 6 6c3.3085-0.000001 6-2.6915 6-6s-2.6915-6-6-6zm0 2.7692c1.7834 0 3.2308 1.4474 3.2308 3.2308s-1.4474 3.2308-3.2308 3.2308-3.2308-1.4474-3.2308-3.2308 1.4474-3.2308 3.2308-3.2308z" />
      <path
         id="path28-2"
         style="stroke:#000000;fill:none;stroke-opacity:1;stroke-width:0.6;stroke-miterlimit:4;stroke-dasharray:none"
         d="m12 5.5c-3.5841 0-6.5 2.9159-6.5 6.5 0 3.584 2.9159 6.5 6.5 6.5 3.584 0 6.5-2.916 6.5-6.5 0-3.5841-2.916-6.5-6.5-6.5z" />
    </g>
  </g>
  <g
     id="layer1-0"
     transform="translate(3,29)"
     style="stroke:#141414;stroke-opacity:1;stroke-width:0.6;stroke-miterlimit:4;stroke-dasharray:none">
    <g
       id="g2479"
       style="stroke:#141414;stroke-opacity:1;stroke-width:0.6;stroke-miterlimit:4;stroke-dasharray:none">
      <path
         id="path2426"
         style="stroke-linejoin:round;stroke:#141414;display:block;fill:url(#linearGradient3262);stroke-opacity:1;stroke-width:0.6;stroke-miterlimit:4;stroke-dasharray:none"
         d="m6.9375 0.5c-0.2484 0-0.4375 0.18908-0.4375 0.4375v1.25c-0.5539 0.1422-1.0512 0.3719-1.5312 0.6563l-0.9063-0.9063c-0.17566-0.17566-0.44934-0.17566-0.625 0l-1.5 1.5c-0.17566 0.17566-0.17566 0.44934 0 0.625l0.9063 0.9063c-0.2844 0.48-0.5141 0.9773-0.6563 1.5312h-1.25c-0.24842 0-0.4375 0.1891-0.4375 0.4375v2.125c1e-8 0.24842 0.18908 0.4375 0.4375 0.4375h1.25c0.1422 0.5539 0.37188 1.0512 0.65625 1.5312l-0.9063 0.907c-0.17566 0.17566-0.17566 0.44934 0 0.625l1.5 1.5c0.17566 0.17566 0.44934 0.17566 0.625 0l0.9063-0.907c0.48 0.285 0.9773 0.514 1.5312 0.656v1.25c1e-7 0.24842 0.18908 0.4375 0.4375 0.4375h2.125c0.2484 0 0.4375-0.189 0.4375-0.438v-1.25c0.5539-0.1422 1.0512-0.37188 1.5312-0.65625l0.90625 0.90625c0.17566 0.17566 0.44934 0.17566 0.625 0l1.5-1.5c0.17566-0.17566 0.17566-0.44934 0-0.625l-0.906-0.906c0.285-0.48 0.514-0.977 0.656-1.531h1.25c0.249 0 0.438-0.1891 0.438-0.4375v-2.125c0-0.2484-0.189-0.4375-0.438-0.4375h-1.25c-0.142-0.5539-0.371-1.0512-0.656-1.5312l0.906-0.9063c0.17566-0.17566 0.17566-0.44934 0-0.625l-1.5-1.5c-0.17566-0.17566-0.44934-0.17566-0.625 0l-0.906 0.9063c-0.48-0.2844-0.977-0.5141-1.531-0.6563v-1.25c0-0.24842-0.1891-0.4375-0.4375-0.4375h-2.125zm1.0625 5.5c1.104 0 2 0.896 2 2s-0.896 2-2 2-2-0.896-2-2 0.896-2 2-2z" />
      <path
         id="path3315-3"
         style="opacity:0.05000000000000000;stroke:#141414;stroke-opacity:1;stroke-width:0.6;stroke-miterlimit:4;stroke-dasharray:none"
         d="m8 3.4651c-2.5006 0-4.5349 2.0343-4.5349 4.5349 0 2.501 2.0343 4.535 4.5349 4.535 2.501 0 4.535-2.034 4.535-4.535 0-2.5006-2.034-4.5349-4.535-4.5349zm0 2.093c1.3479 0 2.4419 1.094 2.4419 2.4419s-1.094 2.4419-2.4419 2.4419-2.4419-1.0941-2.4419-2.442 1.094-2.4419 2.4419-2.4419z" />
      <path
         id="path28-4"
         style="stroke:#141414;fill:none;stroke-opacity:1;stroke-width:0.6;stroke-miterlimit:4;stroke-dasharray:none"
         d="m8 4c-2.2056 0-4 1.7944-4 4 0 2.206 1.7944 4 4 4 2.206 0 4-1.794 4-4 0-2.2056-1.794-4-4-4z" />
    </g>
  </g>
  <g
     id="layer1-09"
     inkscape:label="Layer 1"
     transform="matrix(0.88145106,0,0,0.38815061,10.52882,1.4722989)">
    <path
       sodipodi:type="arc"
       style="opacity:0.29946522;color:#000000;fill:url(#radialGradient8668-1);fill-opacity:1;fill-rule:evenodd;stroke:none;stroke-width:1;marker:none;visibility:visible;display:inline;overflow:visible"
       id="path8660"
       sodipodi:cx="24.837126"
       sodipodi:cy="36.421127"
       sodipodi:rx="15.644737"
       sodipodi:ry="8.3968935"
       d="m 40.481863,36.421127 c 0,4.637477 -7.004387,8.396894 -15.644737,8.396894 -8.64035,0 -15.6447375,-3.759417 -15.6447375,-8.396894 0,-4.637476 7.0043875,-8.396893 15.6447375,-8.396893 8.64035,0 15.644737,3.759417 15.644737,8.396893 z"
       transform="matrix(1.271186,0,0,1.271186,-8.119376,-15.10179)" />
    <path
       style="color:#000000;fill:url(#radialGradient2597);fill-opacity:1;fill-rule:evenodd;stroke:#3a7304;stroke-width:1.00000036;stroke-linecap:round;stroke-linejoin:round;stroke-miterlimit:10;stroke-opacity:1;stroke-dasharray:none;stroke-dashoffset:0;marker:none;visibility:visible;display:inline;overflow:visible"
       d="m 8.5541875,15.517348 0,16.99442 12.9838125,0 0,8.545038 L 41.497835,24.150365 21.41919,7.1251168 l 0,8.3975352 -12.8650025,-0.0053 z"
       id="path8643"
       sodipodi:nodetypes="cccccccc"
       inkscape:connector-curvature="0" />
    <path
       style="opacity:0.5080214;color:#000000;fill:url(#radialGradient8656-3);fill-opacity:1;fill-rule:evenodd;stroke:none;stroke-width:1;marker:none;visibility:visible;display:inline;overflow:visible"
       d="m 21.962385,8.2485033 0,7.8064747 -12.8171699,0 0,9.040713 c 17.7499999,2 16.6335369,-7.455288 31.3835369,-0.955288 L 21.962385,8.2485033 z"
       id="path8645"
       sodipodi:nodetypes="cccccc"
       inkscape:connector-curvature="0" />
    <path
       sodipodi:nodetypes="cccccccc"
       id="path8658"
       d="m 9.537702,16.561892 0,14.98444 12.985367,0 0,7.395166 17.478014,-14.795691 -17.493975,-14.7804004 0,7.2013824 -12.969406,-0.0049 z"
       style="opacity:0.48128339;color:#000000;fill:none;stroke:#ffffff;stroke-width:1.00000036;stroke-linecap:butt;stroke-linejoin:miter;stroke-miterlimit:10;stroke-opacity:1;stroke-dasharray:none;stroke-dashoffset:0;marker:none;visibility:visible;display:inline;overflow:visible"
       inkscape:connector-curvature="0" />
  </g>
</svg>
